<?xml version="1.0" encoding="utf-8"?>
<!-- Generator: Adobe Illustrator 23.0.1, SVG Export Plug-In . SVG Version: 6.00 Build 0)  -->
<svg version="1.1" id="Layer_1" xmlns="http://www.w3.org/2000/svg" xmlns:xlink="http://www.w3.org/1999/xlink" x="0px" y="0px"
	 viewBox="0 0 50 50" style="enable-background:new 0 0 50 50;" xml:space="preserve">
<style type="text/css">
	.st0{fill:#FFFFFF;}
</style>
<g id="Layer_1_1_">
	<path class="st0" d="M11,7H5v42h34v-6h6V1H11V7z M37,47H7V9h4h19v7h7v27V47z M32,10.4l3.6,3.6H32V10.4z M13,3h30v38h-4V14.6L31.4,7
		H13V3z"/>
	<path class="st0" d="M22,14H10v12h12V14z M20,24h-8v-8h8V24z"/>
	<rect x="25" y="19" class="st0" width="9" height="2"/>
	<rect x="25" y="24" class="st0" width="9" height="2"/>
	<rect x="10" y="29" class="st0" width="15" height="2"/>
	<rect x="28" y="29" class="st0" width="6" height="2"/>
	<rect x="10" y="34" class="st0" width="6" height="2"/>
	<rect x="19" y="34" class="st0" width="15" height="2"/>
	<rect x="10" y="39" class="st0" width="14" height="2"/>
	<rect x="27" y="39" class="st0" width="7" height="2"/>
</g>
</svg>
