<?xml version="1.0" encoding="utf-8"?>
<!-- Generator: Adobe Illustrator 23.0.1, SVG Export Plug-In . SVG Version: 6.00 Build 0)  -->
<svg version="1.1" id="Layer_1" xmlns="http://www.w3.org/2000/svg" xmlns:xlink="http://www.w3.org/1999/xlink" x="0px" y="0px"
	 viewBox="0 0 1920 1080" style="enable-background:new 0 0 1920 1080;" xml:space="preserve">
<style type="text/css">
	.st0{fill:#34C88A;}
	.st1{fill:#2FC282;}
	.st2{fill:#27BB77;}
	.st3{fill:#21B46D;}
	.st4{fill:#15A75A;}
	.st5{fill:none;stroke:#E6E6E6;stroke-width:5;stroke-miterlimit:10;}
	.st6{fill:none;stroke:#E6E6E6;stroke-width:5;stroke-miterlimit:10;stroke-dasharray:29.9075,19.9383;}
</style>
<rect x="-0.5" y="0.5" class="st0" width="1920" height="1080"/>
<g>
	<path class="st1" d="M978,147c0,450.7-365.3,816-816,816c-55.6,0-110-5.6-162.5-16.2V0.5h965.4C973.5,48,978,97,978,147z"/>
</g>
<g>
	<path class="st2" d="M804,145c0,354.6-287.4,642-642,642c-56.1,0-110.6-7.2-162.5-20.7V0.5h788.2C798.4,47,804,95.3,804,145z"/>
</g>
<g>
	<path class="st3" d="M632,145c0,259.6-210.4,470-470,470c-57.1,0-111.9-10.2-162.5-28.9V0.5h609.9C624.1,46,632,94.6,632,145z"/>
</g>
<g>
	<path class="st4" d="M405,145c0,134.2-108.8,243-243,243c-62.5,0-119.5-23.6-162.5-62.3V0.5h357.9C387.3,40.9,405,90.9,405,145z"/>
</g>
<g>
	<g>
		<path class="st5" d="M16.1,1003.7c5,0.6,9.9,1.2,14.9,1.8"/>
		<path class="st6" d="M50.8,1007.5c271.4,24.6,552-68.3,754.3-251.1c60.2-54.4,114.9-117.1,187-154.3
			c93.6-48.4,205.3-47.6,309.1-29.4c103.8,18.2,204.4,52.4,308.7,67.6c96,14,199,10.1,284.2-34.5"/>
		<path class="st5" d="M1902.9,600.8c4.3-2.5,8.6-5,12.9-7.7"/>
	</g>
</g>
</svg>
